<svg width="32" height="32" viewBox="0 0 32 32" fill="none" xmlns="http://www.w3.org/2000/svg">
<path d="M22.6262 0.1119C24.3286 0.19222 25.4912 0.4639 26.5075 0.86326C27.5593 1.27318 28.4508 1.82326 29.3379 2.7135C30.2249 3.60374 30.7712 4.4959 31.1782 5.54934C31.5721 6.5679 31.839 7.73142 31.9142 9.43478C31.9894 11.1381 32.006 11.6857 31.9977 16.0306C31.9894 20.3756 31.9702 20.9202 31.8876 22.6271C31.8064 24.3292 31.5356 25.4914 31.1363 26.5081C30.7257 27.5599 30.1763 28.4511 29.2857 29.3385C28.3952 30.2258 27.5036 30.7708 26.4476 31.1785C25.43 31.5717 24.2662 31.8399 22.5632 31.9145C20.8601 31.989 20.312 32.0063 15.9683 31.998C11.6246 31.9897 11.0777 31.9705 9.37116 31.8895C7.6646 31.8085 6.50844 31.5359 5.49148 31.1385C4.43964 30.7269 3.5478 30.1785 2.66108 29.2876C1.77436 28.3967 1.22844 27.5039 0.821722 26.4498C0.427482 25.4322 0.159642 24.2684 0.085722 22.5666C0.011162 20.8588 -0.00643935 20.3135 0.00188065 15.9692C0.0102006 11.6249 0.0297196 11.0802 0.11068 9.37398C0.19164 7.66774 0.462681 6.50902 0.861721 5.49174C1.27292 4.4399 1.82172 3.54934 2.71196 2.66134C3.6022 1.77334 4.49564 1.22774 5.5494 0.82198C6.56764 0.42806 7.73084 0.15958 9.43388 0.0859802C11.1369 0.0123802 11.6851 -0.00649982 16.0304 0.00182018C20.3756 0.0101402 20.9196 0.0287002 22.6262 0.1119ZM22.4393 29.0361C23.9993 28.9682 24.8464 28.709 25.4108 28.4921C26.1584 28.2041 26.6908 27.8559 27.2534 27.2988C27.816 26.7417 28.1616 26.2073 28.4534 25.4613C28.6726 24.8969 28.9366 24.0508 29.0096 22.4908C29.0889 20.8047 29.1056 20.2985 29.1148 16.0268C29.1241 11.7551 29.1078 11.2495 29.0339 9.56278C28.9673 8.00406 28.7065 7.15606 28.4899 6.5919C28.2019 5.84342 27.855 5.3119 27.2966 4.74966C26.7382 4.18742 26.2054 3.84118 25.4588 3.54934C24.895 3.32918 24.0489 3.06742 22.4896 2.99318C20.8022 2.91318 20.2966 2.89718 16.0256 2.8879C11.7545 2.87862 11.2476 2.89462 9.55964 2.96886C8.00092 3.0367 7.1526 3.29494 6.58908 3.51286C5.84124 3.80086 5.30908 4.14678 4.74684 4.70614C4.1846 5.2655 3.83804 5.79638 3.5462 6.54454C3.32572 7.10678 3.06396 7.95254 2.99036 9.51286C2.91004 11.2002 2.8918 11.7061 2.88412 15.9769C2.87644 20.2476 2.89148 20.7548 2.9654 22.4409C3.03356 24.0009 3.29212 24.8482 3.5094 25.4133C3.7974 26.1605 4.1446 26.6933 4.70332 27.2553C5.26204 27.8172 5.7942 28.1634 6.54108 28.4553C7.10428 28.6751 7.95132 28.9375 9.5094 29.0117C11.1968 29.0911 11.7024 29.1077 15.975 29.117C20.2476 29.1263 20.7516 29.109 22.439 29.0361M9.3958 7.44854C9.39517 7.82831 9.28193 8.19936 9.0704 8.51476C8.85887 8.83016 8.55856 9.07575 8.20745 9.22047C7.85633 9.36518 7.47019 9.40253 7.09785 9.32777C6.72552 9.25301 6.38371 9.06952 6.11567 8.80049C5.84763 8.53146 5.66539 8.18899 5.592 7.81638C5.51861 7.44377 5.55736 7.05777 5.70337 6.70719C5.84937 6.35661 6.09606 6.0572 6.41224 5.84683C6.72841 5.63646 7.09987 5.52458 7.47964 5.52534C7.98875 5.52636 8.4766 5.72953 8.83594 6.09018C9.19527 6.45083 9.39665 6.93944 9.3958 7.44854M24.215 16.0159C24.206 20.5535 20.5209 24.2236 15.9843 24.2149C11.4476 24.2063 7.775 20.5215 7.78364 15.9839C7.79228 11.4463 11.4784 7.77526 16.0156 7.78422C20.5529 7.79318 24.2236 11.4789 24.215 16.0159ZM21.3331 16.0101C21.3352 14.9553 21.0244 13.9235 20.4401 13.0453C19.8558 12.167 19.0242 11.4818 18.0504 11.0762C17.0767 10.6706 16.0045 10.5628 14.9695 10.7666C13.9345 10.9703 12.9832 11.4764 12.2358 12.2208C11.4884 12.9652 10.9786 13.9146 10.7708 14.9487C10.5629 15.9829 10.6664 17.0555 11.0682 18.0308C11.4699 19.0062 12.1519 19.8405 13.0278 20.4283C13.9037 21.0161 14.9342 21.3309 15.9891 21.333C16.6895 21.3345 17.3834 21.198 18.031 20.9313C18.6787 20.6645 19.2674 20.2728 19.7637 19.7785C20.2599 19.2843 20.6539 18.697 20.9232 18.0505C21.1925 17.4039 21.3318 16.7106 21.3331 16.0101" fill="#22B2E6"/>
</svg>
