<svg width="32" height="32" viewBox="0 0 32 32" fill="none" xmlns="http://www.w3.org/2000/svg">
<g clip-path="url(#clip0_0_326)">
<path d="M26.3477 26.4305H21.7659V19.3882C21.7659 17.7089 21.7353 15.5472 19.3828 15.5472C16.9964 15.5472 16.6313 17.3768 16.6313 19.266V26.43H12.0494V11.9483H16.448V13.9274H16.5096C16.9498 13.1887 17.5859 12.581 18.3501 12.1691C19.1144 11.7571 19.9782 11.5563 20.8495 11.5881C25.4934 11.5881 26.3496 14.586 26.3496 18.486L26.3477 26.4305ZM6.8796 9.96873C6.35372 9.96882 5.8396 9.81587 5.4023 9.5292C4.96499 9.24253 4.62414 8.83503 4.42281 8.35823C4.22147 7.88143 4.16871 7.35674 4.27121 6.85051C4.37371 6.34428 4.62687 5.87926 4.99866 5.51424C5.37045 5.14922 5.84418 4.90059 6.35994 4.79981C6.8757 4.69903 7.41031 4.75061 7.8962 4.94804C8.38209 5.14547 8.79741 5.47987 9.08966 5.90896C9.3819 6.33805 9.53794 6.84256 9.53803 7.35869C9.5381 7.70138 9.46937 8.04073 9.33581 8.35736C9.20224 8.674 9.00646 8.96171 8.75961 9.20407C8.51275 9.44644 8.21965 9.63871 7.89708 9.76991C7.57451 9.90111 7.22877 9.96867 6.8796 9.96873M9.17052 26.4305H4.5839V11.9483H9.17052V26.4305ZM28.632 0.573601H2.28153C1.68345 0.566977 1.10713 0.793663 0.679254 1.20385C0.251382 1.61403 0.00696355 2.17415 -0.000335693 2.76113V28.73C0.00671373 29.3172 0.250989 29.8777 0.678846 30.2883C1.1067 30.6989 1.68315 30.9261 2.28153 30.9198H28.632C29.2315 30.9272 29.8096 30.7007 30.2391 30.2901C30.6687 29.8795 30.9146 29.3184 30.9229 28.73V2.75926C30.9143 2.17111 30.6683 1.61036 30.2387 1.20018C29.8091 0.790008 29.2312 0.56397 28.632 0.571726" fill="#22B2E6"/>
</g>
<defs>
<clipPath id="clip0_0_326">
<rect width="32" height="30.8569" fill="white" transform="translate(-0.000335693 0.571533)"/>
</clipPath>
</defs>
</svg>
