<svg width="77" height="61" viewBox="0 0 77 61" fill="none" xmlns="http://www.w3.org/2000/svg">
<circle cx="2.5" cy="2.5" r="2.5" fill="#22B2E6"/>
<circle cx="2.5" cy="16.5" r="2.5" fill="#22B2E6"/>
<circle cx="2.5" cy="30.5" r="2.5" fill="#22B2E6"/>
<circle cx="2.5" cy="44.5" r="2.5" fill="#22B2E6"/>
<circle cx="2.5" cy="58.5" r="2.5" fill="#22B2E6"/>
<circle cx="20.5" cy="2.5" r="2.5" fill="#22B2E6"/>
<circle cx="20.5" cy="16.5" r="2.5" fill="#22B2E6"/>
<circle cx="20.5" cy="30.5" r="2.5" fill="#22B2E6"/>
<circle cx="20.5" cy="44.5" r="2.5" fill="#22B2E6"/>
<circle cx="20.5" cy="58.5" r="2.5" fill="#22B2E6"/>
<circle cx="38.5" cy="2.5" r="2.5" fill="#22B2E6"/>
<circle cx="38.5" cy="16.5" r="2.5" fill="#22B2E6"/>
<circle cx="38.5" cy="30.5" r="2.5" fill="#22B2E6"/>
<circle cx="38.5" cy="44.5" r="2.5" fill="#22B2E6"/>
<circle cx="38.5" cy="58.5" r="2.5" fill="#22B2E6"/>
<circle cx="56.5" cy="2.5" r="2.5" fill="#22B2E6"/>
<circle cx="56.5" cy="16.5" r="2.5" fill="#22B2E6"/>
<circle cx="56.5" cy="30.5" r="2.5" fill="#22B2E6"/>
<circle cx="56.5" cy="44.5" r="2.5" fill="#22B2E6"/>
<circle cx="56.5" cy="58.5" r="2.5" fill="#22B2E6"/>
<circle cx="74.5" cy="2.5" r="2.5" fill="#22B2E6"/>
<circle cx="74.5" cy="16.5" r="2.5" fill="#22B2E6"/>
<circle cx="74.5" cy="30.5" r="2.5" fill="#22B2E6"/>
<circle cx="74.5" cy="44.5" r="2.5" fill="#22B2E6"/>
<circle cx="74.5" cy="58.5" r="2.5" fill="#22B2E6"/>
</svg>
