<svg width="32" height="28" viewBox="0 0 32 28" fill="none" xmlns="http://www.w3.org/2000/svg">
<path d="M28.7236 7.46616C28.7431 7.74851 28.7431 8.03087 28.7431 8.31583C28.7431 16.9987 22.139 27.0127 10.0631 27.0127V27.0074C6.49587 27.0127 3.00271 25.9899 -0.000335693 24.0615C0.518372 24.124 1.03968 24.1552 1.56229 24.1565C4.51854 24.1591 7.39028 23.1663 9.71602 21.3382C6.90667 21.2848 4.44313 19.4514 3.58252 16.7749C4.56664 16.9649 5.58065 16.9258 6.54657 16.6617C3.48372 16.0423 1.28018 13.3488 1.28018 10.2208C1.28018 10.1922 1.28018 10.1648 1.28018 10.1375C2.1928 10.6463 3.21461 10.9286 4.25983 10.9599C1.37509 9.03019 0.485872 5.18907 2.2279 2.18592C5.56115 6.29118 10.4791 8.78686 15.7585 9.05101C15.2294 6.76872 15.9522 4.37713 17.6578 2.77276C20.3021 0.284881 24.4608 0.412398 26.9465 3.05772C28.4168 2.76755 29.826 2.22756 31.1157 1.46246C30.6255 2.98355 29.5998 4.27563 28.2296 5.09669C29.5309 4.94315 30.8023 4.59443 31.9997 4.06224C31.1183 5.38425 30.008 6.5358 28.7236 7.46616Z" fill="#22B2E6"/>
</svg>
